<?xml version="1.0" encoding="utf-8"?>
<!-- Generator: Adobe Illustrator 18.0.0, SVG Export Plug-In . SVG Version: 6.00 Build 0)  -->
<!DOCTYPE svg PUBLIC "-//W3C//DTD SVG 1.1//EN" "http://www.w3.org/Graphics/SVG/1.1/DTD/svg11.dtd">
<svg version="1.1" id="Layer_1" xmlns="http://www.w3.org/2000/svg" xmlns:xlink="http://www.w3.org/1999/xlink" x="0px" y="0px"
	 viewBox="0 0 64 64" enable-background="new 0 0 64 64" xml:space="preserve">
<g>
	<g>
		<g>
			<g fill="#428BCA">
				<polygon points="47,0 47,10 56,10 				"/>
			</g>
		</g>
	</g>
	<g>
		<g fill="#428BCA">
			<path d="M43,14V0H10C8.9,0,8,0.9,8,2.1v59.9c0,1.1,0.9,2.1,2,2.1h43.7c1.1,0,2.3-0.9,2.3-2.1V14H43z M22,10.1c1.7,0,3,1.3,3,3
				s-1.3,3-3,3s-3-1.3-3-3S20.3,10.1,22,10.1z M29.5,54.8h-2.4v-0.9c-0.5,0.4-1,0.7-1.5,0.8c-0.5,0.2-1.1,0.2-1.8,0.2
				c-1,0-1.9-0.2-2.6-0.5c-0.7-0.3-1.3-0.7-1.8-1.3c-0.5-0.5-0.8-1.1-1-1.8C18.1,50.7,18,50,18,49.2c0-0.8,0.1-1.6,0.3-2.4
				c0.2-0.7,0.6-1.4,1-2c0.5-0.6,1.1-1,1.9-1.4C22,43.2,23,43,24.1,43c1.1,0,2.1,0.2,3,0.7c0.5,0.2,0.9,0.6,1.2,0.9
				c0.3,0.4,0.6,0.9,0.9,1.5l-2.8,0.6c-0.3-0.5-0.6-0.9-1-1.2c-0.4-0.3-0.9-0.4-1.7-0.4c-0.6,0-1.1,0.1-1.4,0.4
				c-0.4,0.3-0.6,0.6-0.8,1c-0.2,0.4-0.3,0.8-0.4,1.3c-0.1,0.5-0.1,0.9-0.1,1.2c0,0.4,0,0.8,0.1,1.2s0.2,0.8,0.4,1.2
				c0.2,0.4,0.5,0.7,0.8,1c0.4,0.3,0.8,0.4,1.4,0.4c0.8,0,1.4-0.2,1.9-0.6c0.4-0.4,0.7-0.8,0.7-1.3h-2.6v-2.1h5.6V54.8z M34.6,54.8
				h-3V43.2h3V54.8z M46,45.3h-6.2v2.4h4.6l0,2.1l-4.6,0v5h-3V43.2H46V45.3z M17,31l8-9.9l4,4l7-8.9L47,31H17z"/>
		</g>
	</g>
</g>
</svg>
